<svg width="17" height="18" viewBox="0 0 17 18" fill="none" xmlns="http://www.w3.org/2000/svg">
<g id="telegram-fill 1">
<path id="Vector" d="M8.50071 16.0833C4.58867 16.0833 1.41736 12.912 1.41736 8.99999C1.41736 5.08797 4.58867 1.91666 8.50071 1.91666C12.4127 1.91666 15.584 5.08797 15.584 8.99999C15.584 12.912 12.4127 16.0833 8.50071 16.0833ZM6.29788 9.82931L6.30684 9.82364C6.71748 11.1793 6.9228 11.8572 6.9228 11.8572C7.00233 12.0771 7.11166 12.1164 7.24434 12.0985C7.37694 12.0805 7.44734 12.0087 7.5339 11.9252C7.5339 11.9252 7.81461 11.6543 8.37604 11.1125L10.1829 12.4494C10.5122 12.6313 10.7499 12.5375 10.8316 12.1434L12.0059 6.60328C12.1355 6.08762 11.9081 5.8808 11.5083 6.0445L4.61406 8.70752C4.14372 8.89657 4.14599 9.15972 4.52843 9.27702L6.29788 9.82931Z" fill="#0088CC"/>
</g>
</svg>
