<svg width="15" height="16" viewBox="0 0 15 16" fill="none" xmlns="http://www.w3.org/2000/svg">
<path d="M7.50071 0.916656C11.4127 0.916656 14.584 4.08797 14.584 7.99999C14.584 11.912 11.4127 15.0833 7.50071 15.0833C6.20169 15.0833 4.98436 14.7337 3.93769 14.1233L0.420319 15.0833L1.37796 11.564C0.767247 10.5171 0.417358 9.29943 0.417358 7.99999C0.417358 4.08797 3.58867 0.916656 7.50071 0.916656ZM4.94456 4.67672C4.85291 4.68316 4.76305 4.70555 4.68123 4.7474C4.61986 4.7788 4.56288 4.82418 4.47335 4.90872C4.38881 4.98855 4.33982 5.05826 4.28819 5.12547C4.02632 5.46642 3.88558 5.88494 3.88819 6.31485C3.88962 6.66237 3.97989 7.00011 4.12244 7.31546C4.41154 7.95494 4.88829 8.63097 5.51804 9.25792C5.66931 9.40851 5.81751 9.56073 5.97732 9.70141C6.75894 10.3896 7.6904 10.8859 8.69758 11.1508C8.69758 11.1508 9.09424 11.2117 9.10005 11.2121C9.23145 11.2192 9.36263 11.2097 9.49417 11.2029C9.70051 11.1923 9.90196 11.1365 10.0843 11.0394C10.2015 10.977 10.257 10.9459 10.3554 10.8839C10.3554 10.8839 10.3855 10.8635 10.4438 10.8201C10.5394 10.7489 10.5985 10.6987 10.678 10.6161C10.7367 10.5552 10.7871 10.4833 10.826 10.4022C10.8814 10.2866 10.9372 10.0659 10.9594 9.88267C10.9763 9.7427 10.9712 9.6662 10.9693 9.61882C10.9663 9.5426 10.9033 9.46419 10.8343 9.43089L10.4224 9.24574C10.4224 9.24574 9.80654 8.9777 9.42985 8.80586C9.39061 8.78794 9.34768 8.77965 9.30455 8.77703C9.21006 8.77122 9.10416 8.79587 9.0368 8.86685C9.03325 8.86543 8.98636 8.90595 8.47389 9.5268C8.44562 9.56059 8.37939 9.63404 8.26486 9.62717C8.24757 9.62597 8.23036 9.62349 8.21357 9.6191C8.16718 9.60684 8.12198 9.59069 8.07779 9.57199C7.99016 9.53481 7.95942 9.52071 7.89957 9.49493C7.49065 9.31629 7.11537 9.07729 6.78366 8.78482C6.69469 8.70648 6.61196 8.62212 6.52668 8.53946C6.22903 8.25095 5.98536 7.9441 5.80408 7.64143C5.79419 7.62493 5.77894 7.60106 5.76251 7.57435C5.73285 7.52612 5.70014 7.46874 5.68989 7.42936C5.66356 7.32516 5.73341 7.24144 5.73341 7.24144C5.73341 7.24144 5.90582 7.05295 5.98592 6.95045C6.06299 6.85178 6.12951 6.75531 6.17187 6.68653C6.25531 6.55239 6.28173 6.41376 6.23789 6.30681C6.03916 5.82233 5.83413 5.34045 5.62282 4.86132C5.58111 4.76677 5.45706 4.69807 5.34425 4.68504C5.30604 4.68063 5.26786 4.67619 5.2295 4.67367C5.13454 4.66904 5.03939 4.67006 4.94456 4.67672Z" fill="#128C7E"/>
</svg>